<svg width="215" height="224" viewBox="0 0 215 224" fill="none" xmlns="http://www.w3.org/2000/svg">
<path d="M131.206 127.74L211.222 0H180.067L114.949 103.533L131.206 127.74Z" fill="white"></path>
<path d="M52.6009 111.592L8.85396 183.228L0 197.13L13.9542 222.742L35.7299 187.737L72.9261 127.153L56.803 104.709L52.6009 111.592Z" fill="white"></path>
<path d="M118.389 148.512L116.041 145.018L102.131 124.305L87.7293 102.846L97.5108 86.9416L145.505 8.79563L150.92 0H120.752L115.368 8.79563L81.6869 63.9593L72.129 79.6094L57.1289 104.175L56.7988 104.713L72.9221 127.157L101.489 168.687L117.941 192.61L118.179 192.969H148.227L132.299 169.225L118.389 148.512Z" fill="white"></path>
</svg>
